<svg preserveAspectRatio="none" overflow="visible" style="display: block;" width="244.004" height="24" viewBox="0 0 244.004 24" fill="none" xmlns="http://www.w3.org/2000/svg">
<g id="Group 49">
<path id="Vector" d="M2.30952 11.5696L2.30952 11.0696L2.30952 11.5696ZM1.18263 8.44836L1.49017 8.84259H1.49017L1.18263 8.44836ZM22.826 8.44836L22.5184 8.84259V8.84259L22.826 8.44836ZM21.6991 11.5696V12.0696V11.5696ZM13.1312 0.885344L13.4387 0.491114V0.491114L13.1312 0.885344ZM10.8774 0.885344L10.5699 0.491114V0.491114L10.8774 0.885344ZM12.0043 16.7683V17.2683V16.7683ZM15.1668 19.8062H15.6668V19.8062H15.1668ZM8.8418 19.8062L8.3418 19.8062V19.8062H8.8418ZM8.3418 23.5001C8.3418 23.7762 8.56566 24.0001 8.8418 24.0001C9.11794 24.0001 9.3418 23.7762 9.3418 23.5001H8.8418H8.3418ZM14.6668 23.5001C14.6668 23.7762 14.8907 24.0001 15.1668 24.0001C15.4429 24.0001 15.6668 23.7762 15.6668 23.5001H15.1668H14.6668ZM20.8324 11.3861H20.3324V21.7468H20.8324H21.3324V11.3861H20.8324ZM19.0308 23.5001V23.0001H5.33816V23.5001V24.0001H19.0308V23.5001ZM3.5365 21.7468H4.0365V11.3861H3.5365H3.0365V21.7468H3.5365ZM5.33816 23.5001V23.0001C4.60635 23.0001 4.0365 22.4262 4.0365 21.7468H3.5365H3.0365C3.0365 23.004 4.0799 24.0001 5.33816 24.0001V23.5001ZM20.8324 21.7468H20.3324C20.3324 22.4262 19.7626 23.0001 19.0308 23.0001V23.5001V24.0001C20.289 24.0001 21.3324 23.004 21.3324 21.7468H20.8324ZM13.1312 0.885344L12.8237 1.27957L22.5184 8.84259L22.826 8.44836L23.1335 8.05413L13.4387 0.491114L13.1312 0.885344ZM21.6991 11.5696V11.0696L2.30952 11.0696L2.30952 11.5696L2.30952 12.0696L21.6991 12.0696V11.5696ZM1.18263 8.44836L1.49017 8.84259L11.1849 1.27957L10.8774 0.885344L10.5699 0.491114L0.875084 8.05413L1.18263 8.44836ZM2.30952 11.5696L2.30952 11.0696C1.05177 11.0696 0.561694 9.56691 1.49017 8.84259L1.18263 8.44836L0.875084 8.05413C-0.852644 9.40195 0.162939 12.0696 2.30952 12.0696L2.30952 11.5696ZM22.826 8.44836L22.5184 8.84259C23.4469 9.5669 22.9568 11.0696 21.6991 11.0696V11.5696V12.0696C23.8457 12.0696 24.8612 9.40195 23.1335 8.05413L22.826 8.44836ZM13.1312 0.885344L13.4387 0.491114C12.5994 -0.163638 11.4092 -0.163638 10.5699 0.491114L10.8774 0.885344L11.1849 1.27957C11.6627 0.906876 12.3459 0.906876 12.8237 1.27957L13.1312 0.885344ZM12.0043 16.7683V17.2683C13.4939 17.2683 14.6668 18.4233 14.6668 19.8062H15.1668H15.6668C15.6668 17.8336 14.0079 16.2683 12.0043 16.2683V16.7683ZM8.8418 19.8062H9.3418C9.3418 18.4233 10.5147 17.2683 12.0043 17.2683V16.7683V16.2683C10.0007 16.2683 8.3418 17.8336 8.3418 19.8062L8.8418 19.8062ZM8.8418 23.5001H9.3418V19.8062H8.8418H8.3418V23.5001H8.8418ZM15.1668 19.8062H14.6668L14.6668 23.5001H15.1668H15.6668L15.6668 19.8062H15.1668Z" fill="#00278C"/>
<path id="Vector_2" d="M80.8028 7.11242C78.2562 8.31991 76.5043 10.8404 76.5043 13.7542C76.5043 15.4159 77.074 16.9497 78.036 18.185L76.7646 21.1559C76.7038 21.351 76.8824 21.5372 77.0884 21.4937L80.5454 20.2681C81.6341 20.8344 82.8809 21.1559 84.2058 21.1559C85.9557 21.1559 87.5693 20.595 88.8625 19.6501M100.504 9.96726C100.504 12.0927 99.7756 14.0545 98.5451 15.6345L100.171 19.4345C100.249 19.684 100.021 19.9222 99.7572 19.8665L95.3355 18.2989C93.9429 19.0232 92.3482 19.4345 90.6536 19.4345C85.2131 19.4345 80.8028 15.1959 80.8028 9.96726C80.8028 4.73867 85.2131 0.50005 90.6536 0.50005C96.094 0.50005 100.504 4.73867 100.504 9.96726Z" stroke="white" stroke-linecap="round" stroke-linejoin="round"/>
<g id="Vector_3">
<path d="M168.276 5.64124C168.599 8.71151 166.407 11.3954 163.38 11.6358C160.353 11.8762 157.637 9.58214 157.314 6.51187C156.99 3.4416 159.182 0.757764 162.209 0.517347C165.236 0.27693 167.952 2.57098 168.276 5.64124Z" stroke="white" stroke-linecap="round"/>
<path d="M172.504 20.4381C172.504 17.2521 171.961 14.066 165.99 14.066H159.747C155.676 14.066 153.504 15.3936 153.504 20.4381C153.504 21.0246 153.99 21.5 154.59 21.5L171.419 21.5001C172.018 21.5001 172.504 21.0246 172.504 20.4381Z" stroke="white" stroke-linecap="round"/>
</g>
<path id="Vector_4" d="M242.288 2.5074V2.0074V2.5074ZM243.504 3.68184H243.004V3.68184H243.504ZM225.504 3.68184H225.004V3.68184H225.504ZM226.72 2.5074V3.0074V2.5074ZM242.288 21.479V20.979V20.979V21.479ZM243.504 20.3046H244.004V20.3046H243.504ZM229.718 18.5819H230.218V18.5819H229.718ZM228.501 17.4075V17.9075H228.502L228.501 17.4075ZM225.972 17.8649L225.624 18.2238L225.972 17.8649ZM231.244 21.479V21.979V21.979V21.479ZM228.611 20.419L228.263 20.7788V20.7788L228.611 20.419ZM226.114 8.02946C225.838 8.02946 225.614 8.25332 225.614 8.52946C225.614 8.8056 225.838 9.02946 226.114 9.02946V8.52946V8.02946ZM243.352 9.02946C243.628 9.02946 243.852 8.8056 243.852 8.52946C243.852 8.25332 243.628 8.02946 243.352 8.02946V8.52946V9.02946ZM230.582 4.94086C230.582 5.217 230.806 5.44086 231.082 5.44086C231.358 5.44086 231.582 5.217 231.582 4.94086H231.082H230.582ZM231.582 0.50005C231.582 0.223908 231.358 5.02467e-05 231.082 5.02467e-05C230.806 5.02467e-05 230.582 0.223908 230.582 0.50005H231.082H231.582ZM237.904 4.94086C237.904 5.217 238.128 5.44086 238.404 5.44086C238.68 5.44086 238.904 5.217 238.904 4.94086H238.404H237.904ZM238.904 0.50005C238.904 0.223908 238.68 5.02467e-05 238.404 5.02467e-05C238.128 5.02467e-05 237.904 0.223908 237.904 0.50005H238.404H238.904ZM230.996 12.0442C230.72 12.0442 230.496 12.268 230.496 12.5442C230.496 12.8203 230.72 13.0442 230.996 13.0442V12.5442V12.0442ZM231.148 13.0442C231.425 13.0442 231.648 12.8203 231.648 12.5442C231.648 12.268 231.425 12.0442 231.148 12.0442V12.5442V13.0442ZM230.996 15.4412C230.72 15.4412 230.496 15.6651 230.496 15.9412C230.496 16.2174 230.72 16.4412 230.996 16.4412V15.9412V15.4412ZM231.148 16.4412C231.425 16.4412 231.648 16.2174 231.648 15.9412C231.648 15.6651 231.425 15.4412 231.148 15.4412V15.9412V16.4412ZM234.657 12.0442C234.381 12.0442 234.157 12.268 234.157 12.5442C234.157 12.8203 234.381 13.0442 234.657 13.0442V12.5442V12.0442ZM234.809 13.0442C235.086 13.0442 235.309 12.8203 235.309 12.5442C235.309 12.268 235.086 12.0442 234.809 12.0442V12.5442V13.0442ZM234.657 15.4412C234.381 15.4412 234.157 15.6651 234.157 15.9412C234.157 16.2174 234.381 16.4412 234.657 16.4412V15.9412V15.4412ZM234.809 16.4412C235.086 16.4412 235.309 16.2174 235.309 15.9412C235.309 15.6651 235.086 15.4412 234.809 15.4412V15.9412V16.4412ZM238.318 12.0442C238.042 12.0442 237.818 12.268 237.818 12.5442C237.818 12.8203 238.042 13.0442 238.318 13.0442V12.5442V12.0442ZM238.47 13.0442C238.747 13.0442 238.97 12.8203 238.97 12.5442C238.97 12.268 238.747 12.0442 238.47 12.0442V12.5442V13.0442ZM238.318 15.4412C238.042 15.4412 237.818 15.6651 237.818 15.9412C237.818 16.2174 238.042 16.4412 238.318 16.4412V15.9412V15.4412ZM238.47 16.4412C238.747 16.4412 238.97 16.2174 238.97 15.9412C238.97 15.6651 238.747 15.4412 238.47 15.4412V15.9412V16.4412ZM242.288 21.479V20.979H231.244V21.479V21.979H242.288V21.479ZM225.504 16.752H226.004V3.68184H225.504H225.004L225.004 16.752H225.504ZM226.72 2.5074V3.0074L242.288 3.0074V2.5074V2.0074L226.72 2.0074V2.5074ZM243.504 3.68184H243.004L243.004 20.3046H243.504H244.004L244.004 3.68184H243.504ZM242.288 2.5074V3.0074C242.7 3.0074 243.004 3.32557 243.004 3.68184H243.504H244.004C244.004 2.74086 243.22 2.0074 242.288 2.0074V2.5074ZM225.504 3.68184H226.004C226.004 3.32557 226.308 3.0074 226.72 3.0074V2.5074V2.0074C225.789 2.0074 225.004 2.74086 225.004 3.68184H225.504ZM228.611 20.419L228.958 20.0593C228.1 19.2307 226.953 18.1193 226.321 17.5059L225.972 17.8649L225.624 18.2238C226.257 18.8372 227.404 19.9492 228.263 20.7788L228.611 20.419ZM242.288 21.479V21.979C243.22 21.979 244.004 21.2456 244.004 20.3046H243.504H243.004C243.004 20.6608 242.7 20.979 242.288 20.979V21.479ZM229.718 18.5819H229.218L229.218 21.5001H229.718H230.218V18.5819H229.718ZM225.504 17.4075L225.504 17.9075L228.501 17.9075V17.4075L228.501 16.9075L225.504 16.9075L225.504 17.4075ZM229.718 18.5819H230.218C230.218 17.6402 229.432 16.9065 228.501 16.9075L228.501 17.4075L228.502 17.9075C228.914 17.907 229.218 18.2254 229.218 18.5819H229.718ZM225.504 16.752H225.004C225.004 17.3062 225.226 17.8373 225.624 18.2238L225.972 17.8649L226.321 17.5059C226.119 17.3103 226.004 17.0394 226.004 16.752H225.504ZM231.244 21.479V20.979C230.905 20.979 230.464 20.8813 230.026 20.7058C229.589 20.5301 229.203 20.2956 228.958 20.0593L228.611 20.419L228.263 20.7788C228.628 21.131 229.138 21.4265 229.654 21.6337C230.17 21.841 230.74 21.979 231.244 21.979V21.479ZM226.114 8.52946V9.02946H243.352V8.52946V8.02946H226.114V8.52946ZM231.082 4.94086H231.582V0.50005H231.082H230.582V4.94086H231.082ZM238.404 4.94086H238.904V0.50005H238.404H237.904V4.94086H238.404ZM230.996 12.5442V13.0442H231.148V12.5442V12.0442H230.996V12.5442ZM230.996 15.9412V16.4412H231.148V15.9412V15.4412H230.996V15.9412ZM234.657 12.5442V13.0442H234.809V12.5442V12.0442H234.657V12.5442ZM234.657 15.9412V16.4412H234.809V15.9412V15.4412H234.657V15.9412ZM238.318 12.5442V13.0442H238.47V12.5442V12.0442H238.318V12.5442ZM238.318 15.9412V16.4412H238.47V15.9412V15.4412H238.318V15.9412Z" fill="white"/>
</g>
</svg>
